<?xml version="1.0" encoding="UTF-8" standalone="no"?>
<svg xmlns="http://www.w3.org/2000/svg" xmlns:xlink="http://www.w3.org/1999/xlink" width="445" height="210" viewBox="-2 -2 445 210"><style type="text/css">
    @font-face {
      font-family: 'PT Mono';
      font-style: normal;
      font-weight: 400;
      src: local('PT Mono'), local('PTMono-Regular'), url(http://themes.googleusercontent.com/static/fonts/ptmono/v1/jmle3kzCPnW8O7_gZGRDlQ.woff) format('woff');
    }
  </style>
<g><text x="0" y="14" font-family="PT Mono">synchronous, single thread of control</text><path d="M 0.5 40.5 L 20.5 40.5" stroke="#44f" stroke-width="5"></path><path d="M 20 40 L 180 40" stroke="#c22" stroke-width="2"></path><ellipse cx="20" cy="40" rx="5" ry="5" fill="black" width="10" height="10"></ellipse><path d="M 180.5 40.5 L 200.5 40.5" stroke="#44f" stroke-width="5"></path><path d="M 200 40 L 400 40" stroke="#c22" stroke-width="2"></path><ellipse cx="200" cy="40" rx="5" ry="5" fill="black" width="10" height="10"></ellipse><path d="M 400.5 40.5 L 440.5 40.5" stroke="#44f" stroke-width="5"></path><text x="0" y="71" font-family="PT Mono">synchronous, two threads of control</text><path d="M 0.5 95.5 L 20.5 95.5" stroke="#44f" stroke-width="5"></path><path d="M 20 95 L 180 95" stroke="#c22" stroke-width="2"></path><ellipse cx="20" cy="95" rx="5" ry="5" fill="black" width="10" height="10"></ellipse><path d="M 220.5 95.5 L 260.5 95.5" stroke="#44f" stroke-width="5"></path><path d="M 0.5 120.5 L 20.5 120.5" stroke="#44f" stroke-width="5"></path><path d="M 20 120 L 220 120" stroke="#c22" stroke-width="2"></path><ellipse cx="20" cy="120" rx="5" ry="5" fill="black" width="10" height="10"></ellipse><path d="M 220.5 120.5 L 240.5 120.5" stroke="#44f" stroke-width="5"></path><text x="0" y="151" font-family="PT Mono">asynchronous</text><path d="M 20 175 a 30 30 0 0 0 30 30 l 100 0 a 30 30 0 0 0 30 -30" stroke="#c22" fill="none" stroke-width="2"></path><path d="M 35 175 a 15 15 0 0 0 15 15 l 157 0 a 15 15 0 0 0 15 -15" stroke="#c22" fill="none" stroke-width="2"></path><path d="M 0.5 175.5 L 60.5 175.5" stroke="#44f" stroke-width="5"></path><ellipse cx="20" cy="175" rx="5" ry="5" fill="black" width="10" height="10"></ellipse><ellipse cx="35" cy="175" rx="5" ry="5" fill="black" width="10" height="10"></ellipse><path d="M 180.5 175.5 L 200.5 175.5" stroke="#44f" stroke-width="5"></path><path d="M 220.5 175.5 L 260.5 175.5" stroke="#44f" stroke-width="5"></path></g></svg>
