<?xml version="1.0" encoding="UTF-8" standalone="no"?>
<svg xmlns="http://www.w3.org/2000/svg" xmlns:xlink="http://www.w3.org/1999/xlink" width="125" height="105" viewBox="-2 -2 125 105"><g><rect x="40" y="20" width="40" height="60" fill="#e0e0ff"></rect><g><path d="M 20.5 0.5 L 20.5 100.5" width="120" height="100" stroke-width="1" stroke="#888"></path><path d="M 40.5 0.5 L 40.5 100.5" width="120" height="100" stroke-width="1" stroke="#888"></path><path d="M 60.5 0.5 L 60.5 100.5" width="120" height="100" stroke-width="1" stroke="#888"></path><path d="M 80.5 0.5 L 80.5 100.5" width="120" height="100" stroke-width="1" stroke="#888"></path><path d="M 100.5 0.5 L 100.5 100.5" width="120" height="100" stroke-width="1" stroke="#888"></path><path d="M 0.5 20.5 L 120.5 20.5" width="120" height="100" stroke-width="1" stroke="#888"></path><path d="M 0.5 40.5 L 120.5 40.5" width="120" height="100" stroke-width="1" stroke="#888"></path><path d="M 0.5 60.5 L 120.5 60.5" width="120" height="100" stroke-width="1" stroke="#888"></path><path d="M 0.5 80.5 L 120.5 80.5" width="120" height="100" stroke-width="1" stroke="#888"></path></g><rect x="55" y="37" width="16" height="30" fill="#404040"></rect></g></svg>