<?xml version="1.0" encoding="UTF-8" standalone="no"?>
<svg xmlns="http://www.w3.org/2000/svg" width="357" height="317" viewBox="-245 -250 357 317"><style type="text/css">
    @font-face {
      font-family: 'PT Mono';
      font-style: normal;
      font-weight: 400;
      src: local('PT Mono'), local('PTMono-Regular'), url(http://themes.googleusercontent.com/static/fonts/ptmono/v1/jmle3kzCPnW8O7_gZGRDlQ.woff) format('woff');
    }
    .leaf {
      font-family: "Georgia";
      font-size: 17px;
    }
    .wraptext, .linktext, .index {
      font-family: "PT Mono";
      font-size: 14px;
    }
    .wrap {
      border-radius: 4px;
      stroke: #666;
      fill: none;
    }
    .link { stroke: #266; }
    .linktext, .index { fill: #266; }
  </style>
  <text x="-167" y="16" class="leaf">I also wrote a book! ...</text>
  <text x="-167" y="-11" class="wraptext">p</text>
  <rect x="-178.5" y="-28.5" width="191" height="61" class="wrap" rx="4" ry="4"/>
  <text x="-167" y="-68.5" class="leaf">Hello, I am Marijn...</text>
  <text x="-167" y="-95.5" class="wraptext">p</text>
  <rect x="-178.5" y="-113.5" width="191" height="61" class="wrap" rx="4" ry="4"/>
  <text x="-167" y="-153.5" class="leaf">My home page</text>
  <text x="-167" y="-180.5" class="wraptext">h1</text>
  <rect x="-178.5" y="-198.5" width="191" height="61" class="wrap" rx="4" ry="4"/>
  <text x="-178.5" y="-209.5" class="wraptext">body</text>
  <rect x="-190.5" y="-227.5" width="215" height="272" class="wrap" rx="4" ry="4"/>
  <text x="-230.5" y="-180.5" class="index">0</text>
  <text x="-230.5" y="-95.5" class="index">1</text>
  <text x="-230.5" y="-11" class="index">2</text>
  <rect x="-242.5" y="-204.5" width="32" height="209" class="wrap" rx="4" ry="4"/>
  <path d="M -210.5 -184.5 L -178.5 -184.5" class="link" fill="none"/>
  <path d="M 0 0 L 3 8 L 0 7 L -3 8 Z" stroke="none" fill="rgb(102, 170, 170)" transform="translate(-178.5 -184.5) rotate(90) scale(1)"/>
  <path d="M -210.5 -99.5 L -178.5 -99.5" class="link" fill="none"/>
  <path d="M 0 0 L 3 8 L 0 7 L -3 8 Z" stroke="none" fill="rgb(102, 170, 170)" transform="translate(-178.5 -99.5) rotate(90) scale(1)"/>
  <path d="M -210.5 -15.5 L -178.5 -15.5" class="link" fill="none"/>
  <path d="M 0 0 L 3 8 L 0 7 L -3 8 Z" stroke="none" fill="rgb(102, 170, 170)" transform="translate(-178.5 -15.5) rotate(90) scale(1)"/>
  <path d="M -175.5 -227.5 L -175.5 -232.5 A 7 7 0 0 0 -182.5 -239.5 L -219.5 -239.5 A 7 7 0 0 0 -226.5 -232.5 L -226.5 -204.5" class="link" fill="none"/>
  <path d="M 0 0 L 3 8 L 0 7 L -3 8 Z" stroke="none" fill="rgb(102, 170, 170)" transform="translate(-226.5 -204.5) rotate(180) scale(1)"/>
  <text x="-170.5" y="-235.5" class="linktext">childNodes</text>
  <path d="M -42.5 -227.5 L -42.5 -232.5 A 7 7 0 0 0 -49.5 -239.5 L -55.5 -239.5 A 7 7 0 0 0 -62.5 -232.5 L -62.5 -198.5" class="link" fill="none"/>
  <path d="M 0 0 L 3 8 L 0 7 L -3 8 Z" stroke="none" fill="rgb(102, 170, 170)" transform="translate(-62.5 -198.5) rotate(180) scale(1)"/>
  <text x="-38" y="-235.5" class="linktext">firstChild</text>
  <path d="M -42.5 44.5 L -42.5 49.5 A 7 7 0 0 1 -49.5 56.5 L -55.5 56.5 A 7 7 0 0 1 -62.5 49.5 L -62.5 32.5" class="link" fill="none"/>
  <path d="M 0 0 L 3 8 L 0 7 L -3 8 Z" stroke="none" fill="rgb(102, 170, 170)" transform="translate(-62.5 32.5) scale(1)"/>
  <text x="-38" y="61.5" class="linktext">lastChild</text>
  <path d="M -158.5 -113.5 L -158.5 -137.5" class="link" fill="none"/>
  <path d="M 0 0 L 3 8 L 0 7 L -3 8 Z" stroke="none" fill="rgb(102, 170, 170)" transform="translate(-158.5 -137.5) scale(1)"/>
  <text x="-153.5" y="-121" class="linktext">previousSibling</text>
  <path d="M -158.5 -52.5 L -158.5 -28.5" class="link" fill="none"/>
  <path d="M 0 0 L 3 8 L 0 7 L -3 8 Z" stroke="none" fill="rgb(102, 170, 170)" transform="translate(-158.5 -28.5) rotate(180) scale(1)"/>
  <text x="-153.5" y="-36" class="linktext">nextSibling</text>
  <path d="M 12.5 -82.5 L 31.5 -82.5 A 7 7 0 0 0 38.5 -89.5 L 38.5 -95.5 A 7 7 0 0 0 31.5 -102.5 L 31.5 -102.5 L 24.5 -102.5" class="link" fill="none"/>
  <path d="M 0 0 L 3 8 L 0 7 L -3 8 Z" stroke="none" fill="rgb(102, 170, 170)" transform="translate(24.5 -102.5) rotate(270) scale(1)"/>
  <text x="29.5" y="-66" class="linktext">parentNode</text>
</svg>
