<?xml version="1.0" encoding="UTF-8" standalone="no"?>
<svg xmlns="http://www.w3.org/2000/svg" xmlns:xlink="http://www.w3.org/1999/xlink" width="355" height="155" viewBox="-2 -2 355 155"><g><rect x="30" y="15" width="15" height="15" fill="#000"></rect><rect x="45" y="30" width="15" height="15" fill="#000"></rect><rect x="45" y="45" width="15" height="15" fill="#000"></rect><rect x="60" y="60" width="15" height="15" fill="#000"></rect><rect x="75" y="75" width="15" height="15" fill="#000"></rect><rect x="90" y="90" width="15" height="15" fill="#000"></rect><rect x="90" y="105" width="15" height="15" fill="#000"></rect><rect x="105" y="120" width="15" height="15" fill="#000"></rect><g><path d="M 15.5 0.5 L 15.5 150.5" width="150" height="150" stroke-width="1" stroke="#444"></path><path d="M 30.5 0.5 L 30.5 150.5" width="150" height="150" stroke-width="1" stroke="#444"></path><path d="M 45.5 0.5 L 45.5 150.5" width="150" height="150" stroke-width="1" stroke="#444"></path><path d="M 60.5 0.5 L 60.5 150.5" width="150" height="150" stroke-width="1" stroke="#444"></path><path d="M 75.5 0.5 L 75.5 150.5" width="150" height="150" stroke-width="1" stroke="#444"></path><path d="M 90.5 0.5 L 90.5 150.5" width="150" height="150" stroke-width="1" stroke="#444"></path><path d="M 105.5 0.5 L 105.5 150.5" width="150" height="150" stroke-width="1" stroke="#444"></path><path d="M 120.5 0.5 L 120.5 150.5" width="150" height="150" stroke-width="1" stroke="#444"></path><path d="M 135.5 0.5 L 135.5 150.5" width="150" height="150" stroke-width="1" stroke="#444"></path><path d="M 0.5 15.5 L 150.5 15.5" width="150" height="150" stroke-width="1" stroke="#444"></path><path d="M 0.5 30.5 L 150.5 30.5" width="150" height="150" stroke-width="1" stroke="#444"></path><path d="M 0.5 45.5 L 150.5 45.5" width="150" height="150" stroke-width="1" stroke="#444"></path><path d="M 0.5 60.5 L 150.5 60.5" width="150" height="150" stroke-width="1" stroke="#444"></path><path d="M 0.5 75.5 L 150.5 75.5" width="150" height="150" stroke-width="1" stroke="#444"></path><path d="M 0.5 90.5 L 150.5 90.5" width="150" height="150" stroke-width="1" stroke="#444"></path><path d="M 0.5 105.5 L 150.5 105.5" width="150" height="150" stroke-width="1" stroke="#444"></path><path d="M 0.5 120.5 L 150.5 120.5" width="150" height="150" stroke-width="1" stroke="#444"></path><path d="M 0.5 135.5 L 150.5 135.5" width="150" height="150" stroke-width="1" stroke="#444"></path><rect x="0.5" y="0.5" width="150" height="150" stroke-width="1" stroke="#444" fill="none"></rect></g><ellipse cx="37.5" cy="22.5" rx="3.75" ry="3.75" fill="#fff" width="7.5" height="7.5"></ellipse><ellipse cx="112.5" cy="127.5" rx="3.75" ry="3.75" fill="#fff" width="7.5" height="7.5"></ellipse><rect x="230" y="15" width="15" height="15" fill="#000"></rect><rect x="230" y="30" width="15" height="15" fill="#000"></rect><rect x="245" y="30" width="15" height="15" fill="#000"></rect><rect x="245" y="45" width="15" height="15" fill="#000"></rect><rect x="245" y="60" width="15" height="15" fill="#000"></rect><rect x="260" y="60" width="15" height="15" fill="#000"></rect><rect x="260" y="75" width="15" height="15" fill="#000"></rect><rect x="275" y="75" width="15" height="15" fill="#000"></rect><rect x="275" y="90" width="15" height="15" fill="#000"></rect><rect x="290" y="90" width="15" height="15" fill="#000"></rect><rect x="290" y="105" width="15" height="15" fill="#000"></rect><rect x="290" y="120" width="15" height="15" fill="#000"></rect><rect x="305" y="120" width="15" height="15" fill="#000"></rect><g><path d="M 215.5 0.5 L 215.5 150.5" width="150" height="150" stroke-width="1" stroke="#444"></path><path d="M 230.5 0.5 L 230.5 150.5" width="150" height="150" stroke-width="1" stroke="#444"></path><path d="M 245.5 0.5 L 245.5 150.5" width="150" height="150" stroke-width="1" stroke="#444"></path><path d="M 260.5 0.5 L 260.5 150.5" width="150" height="150" stroke-width="1" stroke="#444"></path><path d="M 275.5 0.5 L 275.5 150.5" width="150" height="150" stroke-width="1" stroke="#444"></path><path d="M 290.5 0.5 L 290.5 150.5" width="150" height="150" stroke-width="1" stroke="#444"></path><path d="M 305.5 0.5 L 305.5 150.5" width="150" height="150" stroke-width="1" stroke="#444"></path><path d="M 320.5 0.5 L 320.5 150.5" width="150" height="150" stroke-width="1" stroke="#444"></path><path d="M 335.5 0.5 L 335.5 150.5" width="150" height="150" stroke-width="1" stroke="#444"></path><path d="M 200.5 15.5 L 350.5 15.5" width="150" height="150" stroke-width="1" stroke="#444"></path><path d="M 200.5 30.5 L 350.5 30.5" width="150" height="150" stroke-width="1" stroke="#444"></path><path d="M 200.5 45.5 L 350.5 45.5" width="150" height="150" stroke-width="1" stroke="#444"></path><path d="M 200.5 60.5 L 350.5 60.5" width="150" height="150" stroke-width="1" stroke="#444"></path><path d="M 200.5 75.5 L 350.5 75.5" width="150" height="150" stroke-width="1" stroke="#444"></path><path d="M 200.5 90.5 L 350.5 90.5" width="150" height="150" stroke-width="1" stroke="#444"></path><path d="M 200.5 105.5 L 350.5 105.5" width="150" height="150" stroke-width="1" stroke="#444"></path><path d="M 200.5 120.5 L 350.5 120.5" width="150" height="150" stroke-width="1" stroke="#444"></path><path d="M 200.5 135.5 L 350.5 135.5" width="150" height="150" stroke-width="1" stroke="#444"></path><rect x="200.5" y="0.5" width="150" height="150" stroke-width="1" stroke="#444" fill="none"></rect></g><ellipse cx="237.5" cy="22.5" rx="3.75" ry="3.75" fill="#fff" width="7.5" height="7.5"></ellipse><ellipse cx="312.5" cy="127.5" rx="3.75" ry="3.75" fill="#fff" width="7.5" height="7.5"></ellipse></g></svg>