<?xml version="1.0" encoding="UTF-8" standalone="no"?>
<svg xmlns="http://www.w3.org/2000/svg" width="621" height="274" viewBox="-4 -82 621 274"><style>
    @font-face {
      font-family: 'PT Mono';
      font-style: normal;
      font-weight: 400;
      src: local('PT Mono'), local('PTMono-Regular'), url(http://themes.googleusercontent.com/static/fonts/ptmono/v1/jmle3kzCPnW8O7_gZGRDlQ.woff) format('woff');
    }
    .objtext { font-family: "PT Mono"; font-size: 14px; stroke: none; }
    .objbox { border-radius: 2px; fill: white; stroke: black }
    .sep { stroke: #666 }
  </style>
<g><g><rect x="210.5" y="133.5" width="202" height="55" class="objbox"></rect><text x="221.5" y="154.5" class="objtext">toString: &lt;function&gt;</text><text x="221.5" y="176.5" class="objtext">...</text></g><g><rect x="121.5" y="83.5" width="178" height="55" class="objbox"></rect><text x="132.5" y="104.5" class="objtext">teeth: "small"</text><text x="132.5" y="126.5" class="objtext">speak: &lt;function&gt;</text></g><g><rect x="0.5" y="0.5" width="242" height="88" class="objbox"></rect><text x="11" y="21" class="objtext">killerRabbit</text><text x="11" y="54" class="objtext">teeth: "long, sharp, ..."</text><text x="11" y="76" class="objtext">type: "killer"</text><path d="M 0.5 33.5 L 242.5 33.5" class="sep"></path></g><g><rect x="282.5" y="-79.5" width="114" height="66" class="objbox"></rect><text x="293.5" y="-58.5" class="objtext">Rabbit</text><text x="293.5" y="-25.5" class="objtext">prototype</text><path d="M 282.5 -46.5 L 396.5 -46.5" class="sep"></path></g><path d="M 329.5 -19.5 L 259.5 83.5" class="sep"></path><path d="M 0 0 L 3 8 L 0 7 L -3 8 Z" stroke="none" fill="rgb(102, 102, 102)" transform="translate(259.5 83.5) rotate(214.20048413026853) scale(1)"></path><g><rect x="426.5" y="-9.5" width="186" height="110" class="objbox"></rect><text x="437.5" y="11.5" class="objtext">Object</text><text x="437.5" y="44.5" class="objtext">create: &lt;function&gt;</text><text x="437.5" y="66.5" class="objtext">prototype</text><text x="437.5" y="88.5" class="objtext">...</text><path d="M 426.5 23.5 L 612.5 23.5" class="sep"></path></g><path d="M 432.5 70.5 L 331.5 133.5" class="sep"></path><path d="M 0 0 L 3 8 L 0 7 L -3 8 Z" stroke="none" fill="rgb(102, 102, 102)" transform="translate(331.5 133.5) rotate(238.0456370629486) scale(1)"></path></g></svg>
