<svg xmlns="http://www.w3.org/2000/svg" version="1.1" width="500" height="346"><defs><style type="text/css">
.root text, .root tspan { font: 12px Arial; }
.root path { fill-opacity: 0; stroke-width: 2px; stroke: #000; }
.root circle { fill: #6b6659; stroke-width: 2px; stroke: #000; }
.anchor text, .any-character text { fill: #fff; }
.anchor rect, .any-character rect { fill: #6b6659; }
.escape text, .charset-escape text, .literal text { fill: #000; }
.escape rect, .charset-escape rect { fill: #bada55; }
.literal rect { fill: #dae9e5; }
.charset .charset-box { fill: #cbcbba; }
.subexp .subexp-label tspan, .charset .charset-label tspan, .match-fragment .repeat-label tspan { font-size: 10px; }
.repeat-label { cursor: help; }
.subexp .subexp-label tspan, .charset .charset-label tspan { dominant-baseline: text-after-edge; }
.subexp .subexp-box { stroke: #908c83; stroke-dasharray: 6,2; stroke-width: 2px; fill-opacity: 0; }
.quote {fill: #908c83; }</style></defs><g class="root" transform="matrix(1.3,0,0,1.3,15,10)"><g class="regexp match" transform="matrix(1,0,0,1,10,0)"><path d="M70.66,129H90.66M260.33,128.99H280.33"></path><g class="match-fragment" transform="matrix(1,0,0,1,0,117)"><g class="label anchor"><rect width="70.66" height="24"></rect><text x="0" y="0" transform="matrix(1,0,0,1,5,17)"><tspan>Start of line</tspan></text></g></g><g class="match-fragment subexp" transform="matrix(1,0,0,1,80.66,0)"><rect class="subexp-box" rx="3" ry="3" transform="matrix(1,0,0,1,0,12)" width="189.66" height="234"></rect><text x="0" y="0" class="subexp-label" transform="matrix(1,0,0,1,0,12)"><tspan>group #1</tspan></text><g class="regexp" transform="matrix(1,0,0,1,10,22)"><path d="M10,53.5q0,-10 10,-10M159.66,53.5q0,-10 -10,-10M10,123.5q0,10 10,10M159.66,123.5q0,10 -10,10M10,182q0,10 10,10M159.66,182q0,10 -10,10M0,106.99q10,0 10,-10V53.5M169.66,106.99q-10,0 -10,-10V53.5M0,106.99q10,0 10,10V182M169.66,106.99q-10,0 -10,10V182"></path><g class="regexp-matches" transform="matrix(1,0,0,1,20,0)"><path d="M0,43.5h27.66M111.99,43.5H129.66M0,133.5h10M129.66,133.5H129.66M0,192h46.33M78.33,192H129.66"></path><g class="match" transform="matrix(1,0,0,1,17.66,0)"><path d="M44.66,43.5H69.66"></path><g class="match-fragment" transform="matrix(1,0,0,1,0,0)"><path d="M10,43.5q-10,0 -10,10v21.49q0,10 10,10h34.66q10,0 10,-10v-21.49q0,-10 -10,-10M54.66,58.5l5,-5m-5,5l-5,-5"></path><g class="charset" transform="matrix(1,0,0,1,10,0)"><rect class="charset-box" rx="3" ry="3" transform="matrix(1,0,0,1,0,12)" width="34.66" height="63"></rect><text x="0" y="0" class="charset-label" transform="matrix(1,0,0,1,0,12)"><tspan>One of:</tspan></text><g transform="matrix(1,0,0,1,5,17)"><g class="literal" transform="matrix(1,0,0,1,0,0)"><g class="label"><rect width="24.66" height="24" rx="3" ry="3"></rect><text x="0" y="0" transform="matrix(1,0,0,1,5,17)"><tspan class="quote">“</tspan><tspan>0</tspan><tspan class="quote">”</tspan></text></g></g><g class="literal" transform="matrix(1,0,0,1,0,29)"><g class="label"><rect width="24.66" height="24" rx="3" ry="3"></rect><text x="0" y="0" transform="matrix(1,0,0,1,5,17)"><tspan class="quote">“</tspan><tspan>1</tspan><tspan class="quote">”</tspan></text></g></g></g></g></g><g class="match-fragment literal" transform="matrix(1,0,0,1,69.66,31.5)"><g class="label"><rect width="24.66" height="24" rx="3" ry="3"></rect><text x="0" y="0" transform="matrix(1,0,0,1,5,17)"><tspan class="quote">“</tspan><tspan>b</tspan><tspan class="quote">”</tspan></text></g></g></g><g class="match" transform="matrix(1,0,0,1,0,90)"><path d="M80.00,43.5H105"></path><g class="match-fragment" transform="matrix(1,0,0,1,0,0)"><path d="M10,43.5q-10,0 -10,10v21.49q0,10 10,10h70.00q10,0 10,-10v-21.49q0,-10 -10,-10M90.00,58.5l5,-5m-5,5l-5,-5"></path><g class="charset" transform="matrix(1,0,0,1,10,0)"><rect class="charset-box" rx="3" ry="3" transform="matrix(1,0,0,1,0,12)" width="70.00" height="63"></rect><text x="0" y="0" class="charset-label" transform="matrix(1,0,0,1,0,12)"><tspan>One of:</tspan></text><g transform="matrix(1,0,0,1,5,17)"><g class="charset-escape" transform="matrix(1,0,0,1,14,0)"><g class="label"><rect width="32" height="24" rx="3" ry="3"></rect><text x="0" y="0" transform="matrix(1,0,0,1,5,17)"><tspan>digit</tspan></text></g></g><g class="charset-range" transform="matrix(1,0,0,1,0,29)"><text x="0" y="0" transform="matrix(1,0,0,1,29.66,16.33)">-</text><g class="literal" transform="matrix(1,0,0,1,0,0)"><g class="label"><rect width="24.66" height="24" rx="3" ry="3"></rect><text x="0" y="0" transform="matrix(1,0,0,1,5,17)"><tspan class="quote">“</tspan><tspan>a</tspan><tspan class="quote">”</tspan></text></g></g><g class="literal" transform="matrix(1,0,0,1,38.66,0)"><g class="label"><rect width="21.33" height="24" rx="3" ry="3"></rect><text x="0" y="0" transform="matrix(1,0,0,1,5,17)"><tspan class="quote">“</tspan><tspan>f</tspan><tspan class="quote">”</tspan></text></g></g></g></g></g></g><g class="match-fragment literal" transform="matrix(1,0,0,1,105,31.5)"><g class="label"><rect width="24.66" height="24" rx="3" ry="3"></rect><text x="0" y="0" transform="matrix(1,0,0,1,5,17)"><tspan class="quote">“</tspan><tspan>h</tspan><tspan class="quote">”</tspan></text></g></g></g><g class="match match-fragment" transform="matrix(1,0,0,1,36.33,180)"><path d="M10,12q-10,0 -10,10v2q0,10 10,10h32q10,0 10,-10v-2q0,-10 -10,-10M52,27l5,-5m-5,5l-5,-5"></path><g class="escape" transform="matrix(1,0,0,1,10,0)"><g class="label"><rect width="32" height="24" rx="3" ry="3"></rect><text x="0" y="0" transform="matrix(1,0,0,1,5,17)"><tspan>digit</tspan></text></g></g></g></g></g></g><g class="match-fragment" transform="matrix(1,0,0,1,280.33,117)"><g class="label anchor"><rect width="66.66" height="24"></rect><text x="0" y="0" transform="matrix(1,0,0,1,5,17)"><tspan>End of line</tspan></text></g></g></g><path d="M10,129H0M356.99,129H367"></path><circle cx="0" cy="129" r="5"></circle><circle cx="367" cy="129" r="5"></circle></g></svg>
