<?xml version="1.0" encoding="UTF-8" standalone="no"?>
<svg xmlns="http://www.w3.org/2000/svg" xmlns:xlink="http://www.w3.org/1999/xlink" width="635" height="224" viewBox="-82 -82 635 224"><style type="text/css">
    @font-face {
      font-family: 'PT Mono';
      font-style: normal;
      font-weight: 400;
      src: local('PT Mono'), local('PTMono-Regular'), url(http://themes.googleusercontent.com/static/fonts/ptmono/v1/jmle3kzCPnW8O7_gZGRDlQ.woff) format('woff');
    }
    .caption { font-family: 'PT Mono'; font-size: 13px; }
  </style>
<g><path d="M 0.5 -79.5 L 0.5 80.5" stroke="black"></path><path d="M -79.5 0.5 L 80.5 0.5" stroke="black"></path><path d="M 0.5 -79.5 L 0.5 80.5" stroke="#0a0" transform="translate(50 50)"></path><path d="M -79.5 0.5 L 80.5 0.5" stroke="#0a0" transform="translate(50 50)"></path><path d="M 0.5 0.5 L 50.5 50.5" stroke="#0a0"></path><path d="M 0 0 L 3 8 L 0 7 L -3 8 Z" stroke="none" fill="rgb(0, 170, 0)" transform="translate(50.5 50.5) rotate(135) scale(1)"></path><path d="M 0.5 -79.5 L 0.5 80.5" stroke="#44f" transform="translate(50 50) rotate(20)"></path><path d="M -79.5 0.5 L 80.5 0.5" stroke="#44f" transform="translate(50 50) rotate(20)"></path><path d="M 110.5 50.5 L 110.5 72.5" stroke="#44f"></path><path d="M 0 0 L 3 8 L 0 7 L -3 8 Z" stroke="none" fill="rgb(68, 68, 255)" transform="translate(110.5 72.5) rotate(180) scale(1)"></path><text x="75" y="27" fill="#0a0" class="caption">translate(50, 50)</text><text x="130" y="67" fill="#44f" class="caption">rotate(0.1*Math.PI)</text><path d="M 0.5 -79.5 L 0.5 80.5" stroke="black" transform="translate(360 0)"></path><path d="M -79.5 0.5 L 80.5 0.5" stroke="black" transform="translate(360 0)"></path><path d="M 0.5 -79.5 L 0.5 80.5" stroke="#0a0" transform="translate(360 0) rotate(20)"></path><path d="M -79.5 0.5 L 80.5 0.5" stroke="#0a0" transform="translate(360 0) rotate(20)"></path><path d="M 360.5 -59.5 L 380.5 -59.5" stroke="#0a0"></path><path d="M 0 0 L 3 8 L 0 7 L -3 8 Z" stroke="none" fill="rgb(0, 170, 0)" transform="translate(380.5 -59.5) rotate(90) scale(1)"></path><path d="M 0.5 -79.5 L 0.5 80.5" stroke="#44f" transform="translate(360 0) rotate(20) translate(50, 50)"></path><path d="M -79.5 0.5 L 80.5 0.5" stroke="#44f" transform="translate(360 0) rotate(20) translate(50, 50)"></path><path d="M 360.5 0.5 L 390.5 65.5" stroke="#44f"></path><path d="M 0 0 L 3 8 L 0 7 L -3 8 Z" stroke="none" fill="rgb(68, 68, 255)" transform="translate(390.5 65.5) rotate(155.22485943116808) scale(1)"></path><text x="390" y="-48" fill="#0a0" class="caption">rotate(0.1*Math.PI)</text><text x="415" y="57" fill="#44f" class="caption">translate(50, 50)</text></g></svg>
