<?xml version="1.0" encoding="UTF-8" standalone="no"?>
<!-- Created with Inkscape (http://www.inkscape.org/) -->

<svg
   xmlns:dc="http://purl.org/dc/elements/1.1/"
   xmlns:cc="http://creativecommons.org/ns#"
   xmlns:rdf="http://www.w3.org/1999/02/22-rdf-syntax-ns#"
   xmlns:svg="http://www.w3.org/2000/svg"
   xmlns="http://www.w3.org/2000/svg"
   xmlns:sodipodi="http://sodipodi.sourceforge.net/DTD/sodipodi-0.dtd"
   xmlns:inkscape="http://www.inkscape.org/namespaces/inkscape"
   id="svg2"
   version="1.1"
   inkscape:version="0.48.4 r9939"
   width="1062.9875"
   height="354.325"
   xml:space="preserve"
   sodipodi:docname="201407_ejs_unicycle_vector.ai"><metadata
     id="metadata8"><rdf:RDF><cc:Work
         rdf:about=""><dc:format>image/svg+xml</dc:format><dc:type
           rdf:resource="http://purl.org/dc/dcmitype/StillImage" /><dc:title></dc:title></cc:Work></rdf:RDF></metadata><defs
     id="defs6"><clipPath
       clipPathUnits="userSpaceOnUse"
       id="clipPath16"><path
         d="m 0,283.46 850.39,0 L 850.39,0 0,0 0,283.46 z"
         id="path18" /></clipPath></defs><sodipodi:namedview
     pagecolor="#ffffff"
     bordercolor="#666666"
     borderopacity="1"
     objecttolerance="10"
     gridtolerance="10"
     guidetolerance="10"
     inkscape:pageopacity="0"
     inkscape:pageshadow="2"
     inkscape:window-width="1600"
     inkscape:window-height="875"
     id="namedview4"
     showgrid="false"
     inkscape:zoom="1.0536879"
     inkscape:cx="536.8624"
     inkscape:cy="177.16251"
     inkscape:window-x="0"
     inkscape:window-y="25"
     inkscape:window-maximized="0"
     inkscape:current-layer="g10" /><g
     id="g10"
     inkscape:groupmode="layer"
     inkscape:label="201407_ejs_unicycle_vector"
     transform="matrix(1.25,0,0,-1.25,0,354.325)"><g
       id="g12"><g
         id="g14"
         clip-path="url(#clipPath16)"><g
           id="g20"
           transform="translate(621.667,115.2695)"><path
             d="m 0,0 c 0,-26.966 -75.216,-48.825 -168,-48.825 -92.783,0 -168,21.859 -168,48.825 0,26.965 75.217,48.825 168,48.825 C -75.216,48.825 0,26.965 0,0"
             style="fill:#d0d0d0;fill-opacity:1;fill-rule:nonzero;stroke:none"
             id="path22" /></g><g
           id="g24"
           transform="translate(595.417,120.5156)"><path
             d="m 0,0 c 0,-20.585 -63.464,-37.271 -141.75,-37.271 -78.286,0 -141.75,16.686 -141.75,37.271 0,20.583 63.464,37.271 141.75,37.271 C -63.464,37.271 0,20.583 0,0"
             style="fill:#afafaf;fill-opacity:1;fill-rule:nonzero;stroke:none"
             id="path26" /></g><g
           id="g28"
           transform="translate(574.9424,124.1943)"><path
             d="m 0,0 c 0,-16.237 -54.297,-29.4 -121.275,-29.4 -66.978,0 -121.275,13.163 -121.275,29.4 0,16.237 54.297,29.4 121.275,29.4 C -54.297,29.4 0,16.237 0,0"
             style="fill:#d0d0d0;fill-opacity:1;fill-rule:nonzero;stroke:none"
             id="path30" /></g><g
           id="g32"
           transform="translate(17,196.7935)"><path
             d="m 0,0 c 0.267,-7.336 2.333,-23.333 5.333,-42.333 3,-19 3.334,-35.667 2.667,-38 -0.667,-2.334 -0.711,-6.156 1.333,-6.667 4,-1 32,-11.667 41.334,-16 10.666,-3.333 20.333,-2 38.333,-10 3.667,-1.667 6.333,2.333 11,7 4.667,4.667 57.667,39.667 65,44.667 7.333,5 12.667,7.999 14,9.666 1.333,1.667 0.667,19.334 -0.667,27.334 C 177,-16.333 178,-5.667 173,-4 168,-2.333 161.333,2.667 141.333,2.667 141.667,11 138.333,50 118.333,46 98.333,42 61,33.333 34.333,25.667 7.667,18 -0.667,18.333 0,0"
             style="fill:#c4c4c4;fill-opacity:1;fill-rule:nonzero;stroke:none"
             id="path34" /></g><g
           id="g36"
           transform="translate(111.7134,78.127)"><path
             d="m 0,0 c 0,0 -19.333,21.333 -20.333,22.333 -1,1 -16.667,-6.999 -17.667,-9.333 -1,-2.334 -3.333,-12 6,-32 9.333,-20 18.667,-34 23.667,-41 C -3.333,-67 3,-78.127 3,-78.127 l 96.333,0 c 0,0 3.334,10.126 2.334,19.793 5,3 6,4.334 6,4.334 0,0 4.333,11.333 -8.334,25.333 -9,10 -13,7 -13,7 l -5.666,-3.667 -31.667,23 c 0,0 -0.333,18 -11,20.667 C 32.333,20 24.333,13.332 22.333,12.666 20.333,12 0,0 0,0"
             style="fill:#979797;fill-opacity:1;fill-rule:nonzero;stroke:none"
             id="path38" /></g><g
           id="g40"
           transform="translate(805.5,57.46)"><path
             d="m 0,0 c 0,0 20,72.5 21,80 1,7.5 3.5,5 -5,13.5 -8.5,8.5 -29.5,34 -38,44.5 -8.5,10.5 -17.5,25 -25,24.5 -7.5,-0.5 -15,-5 -17.5,-15 -2.5,-10 -8,-33 -8,-33 0,0 -27,4 -31,-1.5 -4,-5.5 1,-41 1,-41 0,0 29.5,-56.5 35,-63.5 5.5,-7 7,-10.5 9.5,-10.5 2.5,0 58,2 58,2"
             style="fill:#c4c4c4;fill-opacity:1;fill-rule:nonzero;stroke:none"
             id="path42" /></g><g
           id="g44"
           transform="translate(270.4766,83.4678)"><path
             d="m 0,0 -4.75,9.5 12,5 L 0,0 z m -19,2.5 2.5,4.75 6.25,0.75 6,-12.5 -14.75,7 z M -21.75,6 -27,14.75 -20,9.75 -21.75,6 z M -43,43 l 17.5,-7 8,-15 -16.75,5.75 L -43,43 z m 57.25,-25.25 9,5.25 -0.5,2 -6,5.5 L -10.5,20 c 0,0 -23.667,42.667 -26.667,47.333 -3,4.667 -4.333,2 -4.333,2 l -18.667,7 c 0,0 -0.333,2.334 -2.666,0.667 -2.334,-1.667 -4,-3.333 -3,-4 1,-0.667 26,-45.333 26,-45.333 l -2,-0.667 0.666,-3 5.334,-3.333 11.333,-20 L -38,-20 l 1,-2.25 2.5,-0.25 12.25,19 7.25,-12.75 2.5,0.75 0.5,2.75 -6,10.75 13,-6.5 -12.25,-24.25 1.25,-4 3,0.5 13.25,24.75 10.5,-17.25 2,-0.75 2.5,3.25 -12,19 11,25 z"
             style="fill:#979797;fill-opacity:1;fill-rule:nonzero;stroke:none"
             id="path46" /></g><g
           id="g48"
           transform="translate(312.667,84.793)"><path
             d="M 0,0 C 0,0 0.333,-31.667 1.333,-47 2.333,-62.333 2,-84.793 2,-84.793 l 10.667,0 0,6.127 18.666,-6.127 48.667,0 13.667,23.127 0,-23.127 5.666,0 -1.666,37.46 -3.334,0 L 72.667,-77 73,-14.333 65,-13 l -2,-1.666 0,-5 C 63,-19.666 42.667,-10 31.667,-8 20.667,-6 10,-3 10,-3 L 10,-0.333 4.667,2 0,0 z"
             style="fill:#979797;fill-opacity:1;fill-rule:nonzero;stroke:none"
             id="path50" /></g><g
           id="g52"
           transform="translate(325.3335,37.127)"><path
             d="M 0,0 -0.333,-20.667 14,-4.667 C 14,-4.667 1,0 0,0"
             style="fill:#979797;fill-opacity:1;fill-rule:nonzero;stroke:none"
             id="path54" /></g><g
           id="g56"
           transform="translate(476.334,0.001)"><path
             d="m 0,0 c 0.333,0 -1,25.793 -1,25.793 0,0 1,5.666 4.333,3.666 3.333,-2 13.001,-10 16.667,-9 4.666,2.667 1.666,7.668 4.333,13.334 2.667,5.666 9.333,15 27.333,22 18,7 29.001,5.666 33.334,-3.334 C 89.333,43.459 88.666,0 88.666,0 L 84,0 C 84,0 84,9.46 78.333,10.793 74.666,10.793 77,5.541 49,0 L 22.333,0 c 0,0 -7.001,3.793 -11.667,8.126 C 8.333,9.126 5,7.793 5.333,3.126 5.666,-1.541 5.666,0 5.666,0 L 0,0 z"
             style="fill:#979797;fill-opacity:1;fill-rule:nonzero;stroke:none"
             id="path58" /></g><g
           id="g60"
           transform="translate(669,44.46)"><path
             d="m 0,0 -42.334,-16.333 -0.333,12 c 0,0 27.667,13.666 43,16.333 C 1.333,2.334 0,0 0,0 m -0.334,-21 -43,-17.666 0,14.333 L 0,-8 -0.334,-21 z m -52.333,4.667 -23,17.546 c 0,0 -1.333,12.93 -1.333,12.621 l 25,-17.238 -0.667,-12.929 z m -0.333,-22 -23,16.176 0.333,14.824 22.667,-16.846 0,-14.154 z M 5,59.334 0.666,57.667 0.333,53 C 0.333,53 -21.666,42.667 -39,38.667 l -1,2.667 -4.334,1 -5.666,-2 C -50,40.334 -50,6 -49.667,5 L -79,25.334 c 0,0 -3,2.999 -4.667,1.666 l -0.667,-3.666 c 0,0 -0.332,-0.334 0.334,-1.667 0.666,-1.333 2,-54.333 2,-54.333 l 2.333,-2.667 5,2.333 -0.333,6.334 21.333,-16 0.333,-1.794 9.668,0 0.999,1.794 41.667,16 0.333,-7.667 2,-2.667 4,2 2,93 L 5,59.334 z"
             style="fill:#979797;fill-opacity:1;fill-rule:nonzero;stroke:none"
             id="path62" /></g><g
           id="g64"
           transform="translate(729.667,31.127)"><path
             d="M 0,0 10.333,-9.333 3.999,-13 0,0 z m 19.999,-17.333 -13.666,0.666 7.666,4.334 6,-5 z m 10.334,11.666 c 0,0 16,5.334 24,7.334 8,2 17.333,3.666 19.333,3.333 C 71.999,1 39.667,-11.667 30.333,-7 l 0,1.333 z m -25.848,-25.459 5.033,0 -2.852,9.126 14,0 c 0,0 2,2 4.333,3.333 7.408,-5.998 19.576,-3.687 29.937,0.411 l -0.27,-1.077 8.04,-11.793 4.718,0 -9.148,14.279 c 7.706,3.441 13.877,7.53 15.39,9.18 3.667,4 3.333,9.667 2.333,12 0,0 0.667,1.334 1.667,2 1,0.666 4.333,5.667 5.333,10.334 1,4.667 3.334,22.333 2.667,24.333 -0.667,2 -5,3.667 -9,2.333 -4,-1.334 -30.667,-5.666 -38.333,-7.666 -7.666,-2 -12.334,-7.667 -13,-12 C 24.667,19.334 22.666,2 22.666,2 c 0.333,-2.333 3.333,-5 3.333,-5 l -0.666,-3.667 c 0,0 -19.333,23.333 -27.667,21.333 C -7.53,13.419 -8,9.666 -8,9.666 L 0.666,-16 l -16.667,1 -2.333,-1.333 -0.667,-2.334 20.334,-3 3.152,-9.459 z"
             style="fill:#979797;fill-opacity:1;fill-rule:nonzero;stroke:none"
             id="path66" /></g><g
           id="g68"
           transform="translate(557.667,189.46)"><path
             d="m 0,0 10.667,25.333 c 0,0 1.041,1.417 -1.667,1 -3.684,-0.567 -22.167,-4.166 -22.667,-4.666 -0.5,-0.5 -0.292,-0.667 -1.625,-3 -1.333,-2.334 -9.292,-22.417 -9.292,-22.417 l -5.333,-1.333 c 0,0 -2.668,-1 -0.334,-2.667 2.334,-1.667 3.668,-2.667 5.334,-2 C -23.251,-9.083 0,0 0,0"
             style="fill:#000000;fill-opacity:1;fill-rule:nonzero;stroke:none"
             id="path70" /></g><g
           id="g72"
           transform="translate(545.834,187.6265)"><path
             d="m 0,0 -0.333,-14.333 -1.167,-0.5 c 0,0 -1.334,-1.334 -0.334,-2 0.125,-0.084 1.08,-0.808 1.167,-1.5 -0.166,-0.5 -0.5,-22.167 -0.5,-22.167 0,0 -5.875,-4.375 -9.542,-6.042 -3.667,-1.666 -7.375,-3.625 -4.625,-6 2.75,-2.375 5.125,2.709 8.125,4.375 3,1.667 5.708,4.167 7.375,2.5 1.667,-1.666 2.959,-3.375 3.667,-6.5 0.708,-3.125 2.292,-6.417 5,-5.333 2.708,1.083 2.001,3.625 -0.333,6.667 -1.75,2.281 -3.195,4.773 -3.106,5.595 0.03,0.275 0.105,0.113 0.522,-0.054 1.667,-0.666 4.584,-3.541 6.917,-3.875 2.333,-0.333 4.541,0.542 4.208,1.875 -0.333,1.334 -4.874,1.125 -8.541,3.125 -3.667,2 -5.334,4.125 -5.334,4.125 l -0.499,22.209 c 0,0 1.666,1.166 1.333,1.833 -0.333,0.667 -1.5,1.5 -1.5,1.5 l 0.333,16 C 2.833,1.5 0.667,2.667 0,0"
             style="fill:#000000;fill-opacity:1;fill-rule:nonzero;stroke:none"
             id="path74" /></g><g
           id="g76"
           transform="translate(151,122.46)"><path
             d="M 0,0 C 0,0 -4.5,2.5 -4.75,1.25"
             style="fill:#c4c4c4;fill-opacity:1;fill-rule:nonzero;stroke:none"
             id="path78" /></g><g
           id="g80"
           transform="translate(175.7134,149.46)"><path
             d="M 0,0 C 0,0 -0.542,-1 -4.667,-1.667 -10.626,-2.629 -13,-4 -15,-5.333 -17,-6.667 -19,-7 -20.333,-10 c -1.334,-3 -2.667,-5.333 -3,-7.333 -0.334,-2 1.667,-5.667 3,-7.667 1.333,-2 2.333,-3.333 2.333,-5 0,-1.667 -2,-3.667 -2,-3.667 0,0 -2.333,0 -5.333,-1 -3,-1 -5.667,-2.333 -9.334,-7.333 -3.666,-5 -7.333,-12.001 -8.333,-16.667 -1,-4.666 -4,-8.666 -5.667,-14.666 -1.666,-6 -2,-13.667 -2,-13.667 0,0 26,-35.333 28.667,-35.333 2.667,0 32.333,20.334 37,24 4.667,3.666 7.526,5.706 12,14.333 4.667,9 8.333,13.001 4.333,16.667 -4,3.666 -9.666,2.665 -12.666,1.999 C 15.667,-66 3.333,-71 3.333,-71 c 0,0 0.667,22.334 -7.333,28.667 -0.667,2.666 0,5.334 2,6 2,0.666 7.333,4 9.333,4.333 2,0.333 3.334,2 3.667,3 0.333,1 -0.667,3.667 -1.333,5 C 9,-22.667 9.042,-21.334 9,-19.667 c -0.042,1.667 -1.667,6.999 -2.667,9 -1,2 -0.666,2.667 0.334,3.667 1,1 -0.334,1.667 -0.334,1.667 l 1,2 c 0,0 -4,1 -5,0.666 C 1.333,-3 0,0 0,0"
             style="fill:#494949;fill-opacity:1;fill-rule:nonzero;stroke:none"
             id="path82" /></g><g
           id="g84"
           transform="translate(406.3335,23.126)"><path
             d="m 0,0 0.667,-23.126 -3,0 c 0,0 -3.334,14.792 -1.667,17.126 1.667,2.334 4,6 4,6"
             style="fill:#494949;fill-opacity:1;fill-rule:nonzero;stroke:none"
             id="path86" /></g><g
           id="g88"
           transform="translate(325,38.126)"><path
             d="M 0,0 C 0,0 16.333,-7.999 25.667,-9.666 35,-11.333 51,-16.666 51,-16.666 L 51.667,-32 c 0,0 -20.334,-7.333 -36.334,0 C -0.667,-24.667 0,0 0,0"
             style="fill:#494949;fill-opacity:1;fill-rule:nonzero;stroke:none"
             id="path90" /></g><g
           id="g92"
           transform="translate(395,86.126)"><path
             d="M 0,0 -1.333,2.333 C 1,2.666 0,0 0,0 m -4.667,-12.667 c 0,0 0,-3.333 -0.666,-2.333 -0.667,1 -6,9.666 -6,9.666 l 1.333,1 c 1.333,1 1.333,3.834 1.333,3.834 1.667,-0.667 0.667,-4.167 1,-6.834 0.334,-2.667 5.334,-4.333 5.334,-4.333 l -2.334,-1 z m -7.666,12 c -1,0 -1.579,1.344 -0.834,2.834 0.667,1.333 0.834,1.5 1.834,1.5 0,0 0,-4.334 -1,-4.334 m 6.666,1 L -4.333,0 c 0,0 0.333,-4 -1,-3.334 -1.334,0.666 -0.334,3.667 -0.334,3.667 M 22,-34 c -0.333,3.334 -1.333,5.333 -2.667,7 -1.333,1.667 -2,5.333 -7,5 -3.666,-0.166 -5.666,-3.333 -5.666,-3.333 0,0 -0.667,9.667 -0.667,12.667 l 0,3 c 0,0 -2.333,0 -1.333,2.333 1,2.333 2,6.334 1.333,7.667 -0.667,1.333 -2,2 -3,3 -1,1 -1,1.999 -2.333,1.666 -1.334,-0.333 -3,0.334 -3,0.334 l -3.5,-1.167 c 0,0 -1.834,2.833 -2.834,3.5 -1,0.667 -1.333,1.333 -3,0.333 -1.666,-1 -4,-2.334 -5,-2 -1,0.334 -3.583,10.834 -3.583,14.834 0,4 1.25,11.5 -2.083,15.5 -2.414,2.897 -9.917,5.25 -9.917,5.25 0,0 -0.5,3.75 -7.75,1.083 -7.276,-2.677 -11.917,-7.917 -13.25,-12.583 -0.824,-2.885 -1.901,-20.063 -5,-23 C -63,2.584 -70.667,-2 -71.667,-4.333 c 6.834,-2 37.5,-10.001 52.5,-16.667 -0.166,4.167 1.5,6.667 1.5,6.667 L -9.333,-15.666 -10,-77.999 c 0,0 6,-1 12.667,9.333 6.666,10.333 12.666,20.333 12.666,20.333 l 1.417,-37.793 3.917,0 c 0,0 1.333,19.126 2,26.793 C 23.333,-51.666 22.333,-37.334 22,-34"
             style="fill:#494949;fill-opacity:1;fill-rule:nonzero;stroke:none"
             id="path94" /></g><g
           id="g96"
           transform="translate(719,183.1255)"><path
             d="M 0,0 C 0.333,1.333 2,5.667 2,5.667 L 6.666,0.333 C 6.666,0.333 2,-1 0,0 m -10,-44 -0.667,5.667 c 3,-0.667 5.333,-5.334 5.333,-5.334 L -10,-44 z m 51.333,43.333 c -2.666,5.334 -9,17.667 -15,23 C 20.333,27.667 11.334,37 9,36.667 c -2.334,-0.334 -4.333,2 -4,3.666 0.333,1.667 0.999,4 1.666,5 0.667,1 5,6 3.667,9 C 9,57.333 5,61 3.333,61 1.666,61 -4.333,60.333 -8,61.333 c -3.667,1 -3.666,0.668 -6,1.334 -2.334,0.667 -1.334,-2.333 -1.334,-2.333 l 1.669,-1 -1.334,-2 2.332,-0.334 c 0,0 0.334,-4.667 -0.333,-6 -0.667,-1.333 -0.668,-2 -0.334,-4 C -13,45 -14,44.333 -15,42.333 c -1,-2 -1.001,-5.999 -0.334,-7.666 0.667,-1.667 1.666,-3 3,-3.334 C -11,31 -8,32 -6.667,31.333 c 1.333,-0.666 2,-3 2,-4 0,-1 -5.334,-13.333 -7.667,-16.333 C -14.667,8 -19,3 -17,-2.333 c 2,-5.334 -2,-2.334 -2,-2.334 0,1 0.001,3.334 -1.333,4.334 -1.334,1 -0.001,2.333 -1.334,3.666 -1.333,1.334 -0.999,6.334 -5.666,7 -3.334,4 -5.333,4 -6,3 -0.667,-1 -9.001,-0.666 -10.334,-3.666 -3.666,1 -5.999,0.666 -6.666,-1.334 -0.667,-2 -0.334,-5 -0.334,-5 0,0 -2.083,-1.749 -0.666,-3.333 2.199,-2.459 3.666,-2.667 3.666,-2.667 0,0 0.333,-2.666 1,-4 C -46,-8 -47.333,-13 -45,-16.667 c 2.333,-3.666 3.333,-4.333 5.333,-3.333 2,1 8,3.333 8,3.333 l 6,-1.666 c 0,0 -6.666,-7.334 -8.666,-10.334 -2,-3 -1.666,-3.333 -7,-6.666 -5.334,-3.334 -7,-4 -6.667,-5 l 0.333,-1 c 0,0 -1.332,-1.334 -3.666,-2 -2.334,-0.667 -11.668,-2 -13.334,-3.667 -1.666,-1.667 -1.666,-3.667 -1.666,-3.667 0,-1.333 5.333,-1.666 5.333,-1.666 3.333,0.333 10.667,0 11.667,0.666 1,0.667 0.666,1.667 3.666,1.667 3,0 6.292,10e-4 7.292,0.334 1,0.333 0.375,3.333 0.375,4.333 0,1 -1.333,2.666 -1.333,2.666 0,0 3.333,-3 5.333,-4 2,-1 3.667,-1.666 4.667,-0.333 l 2,2.667 1,-5 c 0,0 -3.334,-0.334 -3.334,-3.334 0,-3 1.334,-6.333 1.334,-6.333 0,0 -5,-4 -3.667,-7 1.333,-3 11.667,-18.666 16,-22 l -0.667,-2 c 0,0 -7.5,-0.333 -8.666,-1 -1.166,-0.666 -1.166,-0.999 -1,-2.166 1,-2.333 3.667,-3.834 7,-3.501 3.333,0.334 7,-0.666 8.333,0.667 l 1.333,1.333 c 0,0 3.334,-3.333 1.667,-5.666 -3,-1.334 -4.334,-3.667 -5.667,-3.667 -1.333,0 -1.288,0.557 -3.666,-0.333 -1.333,-0.5 -2,-0.666 -2.333,-1.666 -0.333,-2.333 -0.668,-4.001 1.999,-4.668 2.667,-0.666 7.668,-0.666 10.334,-0.333 2.666,0.333 5.666,3.334 7.666,4 2,0.667 4.334,0 6.334,0.667 2,0.666 4.666,2 4.333,3.666 -0.333,1.667 -1.667,3.334 -2.667,4 -1,0.667 -2.334,4.667 -3,6.334 C 4.667,-90.667 4,-91 3,-87.667 c -1,3.334 -4,10.334 -4,10.334 0,0 -3.333,3.666 -2,4 1.333,0.333 10.667,5.666 15,5.666 4.333,0 23.999,2 22.333,14 -1.241,8.937 -2.03,10.174 -2.583,10.001 L 34,-42 c 0,0 -0.667,1.667 -3,3 -2.333,1.333 -9.333,11.333 -11,12.333 -1.667,1 7.999,2 10.333,2 2.334,0 11.668,2.667 12.334,7.334 0.666,4.666 1.332,11.333 -1.334,16.666"
             style="fill:#494949;fill-opacity:1;fill-rule:nonzero;stroke:none"
             id="path98" /></g><g
           id="g100"
           transform="translate(759.834,25.46)"><path
             d="M 0,0 C 0,0 37.832,12.332 43.832,10.999 44.166,6.999 36.165,-3 25.832,-5.334 15.499,-7.668 1.334,-6.666 0,0"
             style="fill:#494949;fill-opacity:1;fill-rule:nonzero;stroke:none"
             id="path102" /></g><g
           id="g104"
           transform="translate(776.666,84.459)"><path
             d="m 0,0 c -0.667,-1.667 -8.666,-6.332 -10.999,-7.332 -2.333,-1 -8.334,-6.335 -8.334,-6.335 0,0 6.167,17.166 7.667,17.667 2.25,-0.749 7.826,0.373 8,-0.667 2.25,-1.582 -2,-1.332 -0.667,-3.666 C -2.333,-0.999 0.334,1.333 0,0 m 32.334,-1.667 c -0.334,2.334 -4,5 -9,5.667 -5,0.667 -5.667,1 -5.667,1 0,1 -4.999,4.999 -3.333,7.333 1.666,2.334 5,9.666 6,12 1,2.334 2,2.001 2,6.334 0,4.333 -7.333,15.999 -12,15.666 -4.667,-0.333 -4.667,-2 -4.667,-2 0,0 -2.667,1.001 -3,-0.666 C 2.334,42 1.668,41.333 1.334,39 1,36.667 0.667,35.999 0.667,34.333 0.667,32.667 0.334,31 -1.333,28 -3,25 -3,21.999 -3.333,19.333 -3.666,16.667 -4.666,14.667 -4.666,13 c -3,-0.667 -8,-0.999 -9.667,-4.333 C -16,5.333 -28,-10.665 -28.666,-12.999 c -3,0 -9.333,-1.334 -14.667,-3.667 -5.334,-2.333 -10.333,-2.334 -10.333,-2.334 0,0 -6.668,0.333 -8.334,1 -1.666,0.667 -6.999,3.999 -8.666,1.333 -1.667,-2.666 2.332,-7.999 3.666,-8.666 1.334,-0.667 3,-1.667 3,-1.667 0,0 -10.333,-1.667 -12.333,-3 -2,-1.333 -4.333,-1.333 -4.333,-1.333 0,0 -3.668,3.333 -7.334,5.333 -3.666,2 -9.334,2.333 -7,-4.667 2.334,-7 5.334,-6.333 6.334,-7.333 1,-1 4.334,-5.666 8,-6.333 C -77,-45 -74.334,-48.667 -73,-48 c 1.334,0.667 4.001,0.666 5.334,1.333 1.333,0.667 6,6 9,6.667 3,0.667 11.333,1.333 11.333,1.333 0,0 20.334,-21.332 25.334,-21.665 1.667,1 1,4 1,4 0,0 -3.667,2.167 -3,6.833 0.667,4.666 1.5,21.332 3.667,23.833 2.167,2.501 5.667,7.001 12.999,8.333 4.931,0.896 38.667,8 40,8 l 1.333,0 c 0,0 -1.332,5.332 -1.666,7.666"
             style="fill:#494949;fill-opacity:1;fill-rule:nonzero;stroke:none"
             id="path106" /></g><g
           id="g108"
           transform="translate(650.668,124.793)"><path
             d="M 0,0 C -3.737,1.866 -7.334,4.668 -7.334,8.334 -7.334,12 -9.333,14.667 -9,16.333 -8.667,18 -10.334,21 -14.334,21.333 -18.334,21.667 -21,21 -22,21.667 -23,22.333 -23.667,24 -23.667,24 c 0,0 -2.667,0.334 -2.667,-2 -2.333,0.333 -4.333,-0.333 -4.333,-0.333 l -3,-1 1.333,-2 L -35.667,18 c 0,0 0.667,-4 1.667,-4.333 0,-3.667 -0.666,-8.333 1,-13.333 0.666,-1.334 -0.666,-5.666 -1,-7 0.082,-0.667 -0.918,-0.709 0.082,-3.042 1,-2.333 0.585,-2.292 1.918,-3.292 1.333,-1 3.666,-2.667 5.333,-2 1.667,0.667 3,1.334 4,2.667 1,1.333 3,1.667 3,1.667 0,0 -6.334,-7 -7.667,-10 -1.333,-3 -3,-3 -4.333,-2 -1.333,1 -2.334,2.666 -3.667,2.333 -1.333,-0.333 -2,0.333 -3.333,0 -1.333,-0.333 -2.667,-0.333 -4,-1.333 -1.333,-1 -5.001,-0.334 -4.667,-2.667 0.334,-2.333 0,-4 0,-4 l -4.333,-1.333 c 0,0 0.333,3.666 -2,3.333 -2.333,-0.333 -3.333,-0.333 -5,0.667 -1.667,1 -3.001,2.666 -4.667,1.333 -1.666,-1.333 -1.666,-1.333 -3.333,-2 -1.667,-0.667 -3.667,-3.333 -4.667,-4 -1,-0.667 -3.667,-1.667 -3,-3 0.667,-1.333 -0.333,-2.667 -0.333,-2.667 l -1.667,2.667 c 0,0 -2,-1.334 -5.333,0.333 -3.333,1.667 -9.333,9 -11.333,8.667 -2,-0.333 -4,-0.333 -4,-0.333 0,0 -7,-0.001 -1.667,-10.334 5.333,-10.333 8.999,-10.334 11.333,-14 2.334,-3.666 5.667,-10.333 8.667,-8.333 3,2 5.667,2.667 5.667,2.667 0,0 -2.667,-11.668 1.333,-22.001 1.333,-5.333 2,-12 2,-12 0,0 -0.167,1.166 -1.5,1.833 -1.333,0.667 -4.833,1.334 -6.5,-1.333 -1.667,-2.667 -1.667,-7.832 0.333,-10.166 2,-2.334 4.666,-6.001 6,-7.334 1.334,-1.333 5.833,-4 7.5,-4 0.666,1.333 -0.832,39 -1.166,45 -0.334,6 -0.875,9.875 -0.793,8.834 0.082,-1.041 -0.25,2.5 2.126,0.833 3.333,-2 13.001,-11.333 15.667,-13 2.666,-1.667 14,-9.667 15.333,-9.667 1.333,0 1.333,3 1.333,4 0,1 -0.334,33.084 -0.334,33.084 l 5.334,2.25 5,-1 0.666,-2.25 c 0,0 20.625,4.5 39.25,14.5 0.334,4 0.418,4.416 0.418,4.416 l 4.207,1.709 c 0,0 0.625,-0.416 1.625,-0.75 1,-0.334 -2.499,10.707 -6.499,14.041 C 14.333,-4.333 0.667,-0.333 0,0"
             style="fill:#494949;fill-opacity:1;fill-rule:nonzero;stroke:none"
             id="path110" /></g><g
           id="g112"
           transform="translate(591.668,59.127)"><path
             d="m 0,0 0.333,-13.16 c 0,0 7.667,-8.46 13,-12.22 5.333,-3.76 11.333,-5.953 11.333,-5.953 l 1,13.16 L 0,0 z"
             style="fill:#494949;fill-opacity:1;fill-rule:nonzero;stroke:none"
             id="path114" /></g><g
           id="g116"
           transform="translate(626.001,40.127)"><path
             d="m 0,0 c 0,0 29.874,14.833 43.249,16.208 1,-8 1.125,-12.334 -4.875,-16 C 32.374,-3.458 7.334,-14 0.667,-11.667 0,-7.001 0,0 0,0"
             style="fill:#494949;fill-opacity:1;fill-rule:nonzero;stroke:none"
             id="path118" /></g><g
           id="g120"
           transform="translate(483.334,7.793)"><path
             d="m 0,0 c 0,0 1.999,-4.586 3.666,-7.793 3.334,0 11.502,0.001 11.502,0.001 0,0 -7.502,5.124 -10.168,7.125 C 2.334,1.334 1.667,0.667 0,0"
             style="fill:#494949;fill-opacity:1;fill-rule:nonzero;stroke:none"
             id="path122" /></g><g
           id="g124"
           transform="translate(486,80.793)"><path
             d="m 0,0 c -4,-2.666 -6.333,-6.666 -6.333,-6.666 0,0 0.333,8.666 0.333,13.333 0,4.667 0.668,6.166 2.501,7.333 1.833,1.167 2.667,3 2.667,3 l 0.833,3.167 4.999,0.5 0,-3.333 c 0,-1.667 0.001,-8.666 5.334,-9 5.333,-0.334 7.333,-1 7.333,-1 L 18,4.667 C 18,4.667 9.333,6.333 0,0 M -6.666,21.667 C -6.666,24.334 -5,25 -5,25 -1.499,18.167 -6.666,19 -6.666,19 l 0,2.667 z M 55.667,0.334 C 50.334,9.334 42,13.667 42,13.667 c 0,0 -0.333,2 -0.666,4.667 -1.333,5 -7,11.666 -10.667,12 C 30,34.001 23.334,37.667 21.334,38 c -2,0.333 -7.667,-0.666 -9.667,-1.666 -2,-1 -2.333,-2 -2.333,-2 L 7.667,35.667 5,36 4,34.667 C 4,34.667 -0.333,34 -2.666,33.334 -2.999,34.668 -4.666,34 -6,32.667 -7.334,31.334 -9.333,30 -10.333,29 -11.333,28 -12,25.667 -13,25 c -1,-0.667 -1.666,-1 -1.666,-3 0,-2 1.666,-7 2,-9 0.334,-2 -3.334,-12.667 -5,-16 -1.666,-3.333 -4,-11.333 -4,-13 0,-1.667 3,-3.667 5.666,-4 2.666,-0.333 17.334,3.667 22.334,5.667 5,2 4.666,0 5.666,-2 1,-2 1,-3.334 1,-3.334 0,0 -2.75,1.084 -6,-1 -1.334,-0.334 -1,-7 -1,-7 0,0 -4.666,0 -8.666,1.334 -4,1.334 -10.334,1.666 -12.334,1.333 -2,-0.333 -4.333,-4 -4.333,-9.333 0,-5.333 8.667,-21.667 8.667,-21.667 0.667,7 4,5 8,2 4,-3 9.666,-8.334 13.333,-6 4.334,3 0.5,4.333 4.834,14.667 C 19.835,-34.999 46.168,-18.5 64.334,-21 64.667,-15.334 61,-8.666 55.667,0.334"
             style="fill:#494949;fill-opacity:1;fill-rule:nonzero;stroke:none"
             id="path126" /></g><g
           id="g128"
           transform="translate(231.3101,124.8008)"><path
             d="m 0,0 c 0,0 -0.667,-12.667 5.333,-16.667 6,-4 14.023,-3.674 16.023,-3.341 C 16.856,-11.174 13.333,-5.333 14,-5.333 14.667,-5.333 0,0 0,0"
             style="fill:#494949;fill-opacity:1;fill-rule:nonzero;stroke:none"
             id="path130" /></g><g
           id="g132"
           transform="translate(255.8335,160.293)"><path
             d="M 0,0 C 0,0 -0.667,1.667 -0.333,3 0,4.333 0.333,5.333 1.167,5.833 2,6.333 2.81,6.841 2.81,6.841 c 0,0 0.023,-3.008 1.023,-4.008 1,-1 0.5,-0.666 1.5,-2 0.384,-0.512 2.834,-1.166 3,-2.833 0.576,-0.749 -1,-1 -1,-1 0,0 0.477,-3.492 1.81,-10.492 C 5.167,-5.083 0,0 0,0 m 3.143,-32.159 c -0.333,2 -0.333,3.667 -0.333,3.667 l 2.333,-2 c 0,0 -1.666,-3.667 -2,-1.667 M -15.19,2.508 c 0,0 1.666,5.333 1,6.333 0,0 2.666,0 3,-2 l 0.333,-2 -4.333,-2.333 z M 66.667,-40.5 c -1.334,0.334 -3.5,-1.166 -5.667,-3.5 -2.268,-2.443 -3.667,-3 -6.19,-4.159 -0.667,1 -5.333,3.334 -8.667,5.667 -3.333,2.333 -9.666,10.333 -12.333,13 -2.667,2.667 -7.333,3 -13,1.333 0.334,2.666 -3,15 -3.667,17.667 -0.667,2.666 -0.666,8.667 -0.666,10 0,1.333 -1.644,1.659 -1.644,1.659 0,0 -0.5,3.166 -1.5,5.833 -1,2.667 -4.523,2.841 -4.523,2.841 l 0,1.334 c 0.667,6 -1,9 -1,9 0,0 -0.333,1.666 -0.333,7.666 0,6 -7,7 -7,7 0,0 -7,1.334 -13,-3.666 -6,-5 -5,-13.667 -5,-13.667 l -3,-3 c -4.334,-5 -3,-11.333 -1.334,-17.667 -1.667,-1 -2,-4.666 -2,-4.666 l 28,-49.334 c 0,0 8.667,2 14.667,4 6,2 13.333,6.334 13.333,6.334 l 5.334,-5 0.333,-1.667 -9,-5.333 -1,-2.667 c 0,0 -0.333,-2.333 -0.667,-6 -0.333,-3.667 -0.666,-6.667 -1.333,-9 -0.667,-2.333 0.333,-2.667 0.333,-2.667 l 0,-2 c 0,-2 3.334,-2.666 6.334,-2 1.172,0.261 4.999,2.334 6.333,5.334 1.333,3 4,3 5,5.666 0.857,1.659 1,2.667 -0.333,3.667 -1.333,1 -5,-0.333 -5,-0.333 l 0,2 c 0,2 1.666,10 1.666,10 0,0 6.667,-5.667 8,-5.667 1.334,0 2.667,4.333 2.667,5.333 0,1 1.333,-0.666 1.333,-0.666 0,0 3,-3 5.334,-3.334 2.333,-0.334 5.333,6.334 6.333,8.334 1,2 1.19,2.991 3.523,6.658 2.334,3.667 0.667,5.333 -0.666,5.667"
             style="fill:#494949;fill-opacity:1;fill-rule:nonzero;stroke:none"
             id="path134" /></g><g
           id="g136"
           transform="translate(62,170.96)"><path
             d="m 0,0 c -1,0 -1.5,0.25 -2.5,0.75 -1,0.5 0.035,7.218 0.25,6.5 C -1.5,4.75 1,0 0,0 m 121.667,35.5 c 0,0 -11.167,3.5 -11.917,4 -0.75,0.5 -1,0 -2,-2.5 C 107,34.5 97.5,17.75 97.5,17.75 L 94.25,17.5 c 0,0 -1.5,0 -1.75,0.75 C 92.25,19 90.25,19 90.25,19 c 0,0 -1.75,-1.5 -3.5,-1.75 C 85,17 84,17.75 82.5,17.75 c -1.5,0 -3.75,0.75 -4.75,1.25 -1,0.5 -3.25,0.5 -2.5,1 0.75,0.5 2.5,5.75 3,7.25 0.5,1.5 3,3 3,3 0,0 1.25,-1.25 2,-1.75 0.75,-0.5 3.5,-1 4.25,-0.25 0.75,0.75 3.75,2 6.5,3.25 2.75,1.25 0.5,3.75 3.5,5.5 0.75,0.25 2,1.75 3.25,4.75 4,10.5 -4.5,17 -8.5,19.25 -1.25,5 -9.75,5.5 -14,1.75 C 74,59 77.25,54 77.25,54 75.75,51.75 75.5,49.5 74.75,47.75 73.25,47.25 62.5,45 54.5,38.75 46.5,32.5 42,22 40.75,17 c -1.25,-5 0.5,-11 -1,-10.75 -1.5,0.25 -2,0.5 -4,2.25 -2,1.75 -3.25,6.75 -3.25,9.25 0,2.5 1,15 1,17.25 0,2.25 1,6.75 1.5,10.167 0.309,2.113 0.107,5.796 4.75,9.333 5.25,4 9.25,7.294 11.5,8 4.25,1.333 10.917,4.833 15.25,5.5 1.882,0.29 3.167,-0.417 5.167,-0.667 2.354,-0.294 3.838,-1.041 4.583,-1.041 1,0 2.458,-0.084 3.583,0.666 0.246,0.164 0.562,0.758 -0.438,1.258 -1,0.5 -1.312,-0.133 -2.562,0.117 -1.25,0.25 -1.375,1.292 -1.166,1.625 0.208,0.334 0.833,0.334 1.625,0.334 0.79,0 2.286,0.183 3.021,0.036 0.833,-0.167 3.129,-0.859 3.213,-0.276 0.114,0.794 -2.08,1.77 -3.58,2.02 -1.438,0.24 -1.423,0.164 -2.754,0.734 C 75.442,73.556 76.25,73.083 75,73.333 73.75,73.583 71.75,73 71.75,73 71.75,73 70.565,72.834 65.5,72.25 59,71.5 53.25,71.5 48.5,71 43.75,70.5 32,66 27.75,64.25 c -4.25,-1.75 -7,-3 -7,-3 l 0,1.5 c 0,1.5 0,0 0.5,1 0.5,1 0.25,1 0.25,2 0,1 -1,2 -2,3.25 -1,1.25 -2.75,4.25 -4.5,5 -1.75,0.75 -1.5,1.25 -2.75,3 -1.25,1.75 -3.5,5 -3.5,5 l -0.25,2.25 -1,1.25 0.75,1 c 0,0 -0.75,1.75 -1.5,1.75 C 6,88.25 5.25,87 3.75,86.5 2.25,86 -0.5,86 -2.5,84.75 -4.5,83.5 -8.25,78.5 -8.75,77.5 c -0.5,-1 0.75,-7.75 0.5,-9.25 -0.25,-1.5 1.75,-2.25 2.5,-2.75 0.75,-0.5 3,-1.25 3,-2 0,-0.75 -0.5,-1.5 1.25,-3.75 C 0.25,57.5 4.25,58.5 4.25,58.5 4.25,58.5 5,54.75 4,53.25 3,51.75 1,50 -2,48.25 -5,46.5 -12.75,39 -13.25,36 c -0.5,-3 -2,-9.25 -1.75,-13 0.25,-3.75 -1.75,-17.75 -1.25,-25.75 0.5,-8 2.75,-6.75 4.5,-7.75 7.766,-4.438 9.25,-4.25 18.5,-6 9.25,-1.75 14.5,-2.75 15.75,-3.5 1.25,-0.75 4.5,-3 6.25,-3.5 1.75,-0.5 1.5,-0.25 2.25,-0.75 0.75,-0.5 1.375,-1.25 1.875,-2.75 0.5,-1.5 0.875,-1.25 1.625,-2.75 0.75,-1.5 2.5,-0.25 2.5,-0.25 0,0 -0.25,1 -1,2.25 -0.75,1.25 -0.75,2.25 -1,3 -0.25,0.75 1.25,0.25 1.25,0.25 0,0 1.25,-1 1.75,-2.25 0.5,-1.25 0.514,-1.251 1,-2.125 0.625,-1.125 0.75,-1 2,-1.25 1.25,-0.25 1.75,0.375 1.25,1.125 -0.5,0.75 -1.625,4.25 -2.875,5 -1.25,0.75 0.125,1.25 0.125,1.25 l 2.25,-2 2.75,-4.125 c 0,0 1.25,-0.375 1.5,0.375 0.25,0.75 -1.125,3.875 -2.125,4.875 -1,1 -1.875,1.625 -0.375,1.625 1.5,0 2.5,-2.5 3.75,-6.5 1.25,-4 5,-36.25 5.5,-39.25 0.5,-3 1,-5 1,-5 0,0 -0.75,-3.5 -0.75,-5 0,-1.5 1,-2.5 2.25,-4.25 1.25,-1.75 3,-2.5 3,-2.5 l 6.417,4.333 c 0,0 5.333,8.167 4.583,8.667 -0.75,0.5 0,0 -1.75,3.25 -1.75,3.25 -0.25,3 -1.5,6.25 -1.25,3.25 -1,4.75 -2,7.75 -1,3 1,11 0.5,14 -0.5,3 -0.5,4.25 -1.75,7.5 -1.25,3.25 -1.25,3.75 -1.75,6 -0.5,2.25 -1.25,4.75 -0.5,4.75 0.75,0 3.5,-3 3.75,-4 0.25,-1 0,-3 2,-8.5 2,-5.5 1.75,-18 2.5,-23 0.75,-5 0.25,-5.5 1,-6.5 0.75,-1 3,-2 3,-2 l 11,9.5 -0.5,1.75 c -0.5,1.75 -1,4.5 -1.25,6.25 -0.25,1.75 1.5,1.25 2.25,1.25 0.75,0 1.25,-0.5 2.5,-2.25 1.25,-1.75 0.583,1.333 0.583,1.333 0,0 2.25,-0.5 3,0 0.75,0.5 -1.75,13.75 -2,15 -0.25,1.25 -0.315,5.385 0,6.334 0.667,2 -0.25,5.25 0,6 0.25,0.75 -0.5,12.916 0,11.666 0.5,-1.25 1.417,-7.833 1.417,-9.083 0,-1.25 0.75,-5 1,-6.25 0.25,-1.25 0.917,-10.334 0.917,-10.334 l 8.666,5.334 c 0,0 0.167,1.667 -0.333,2.667 -0.5,1 -0.167,3.583 -0.667,4.333 -0.5,0.75 0.25,3 0,4 -0.25,1 -0.083,12.5 0.417,14.75 0.5,2.25 -0.5,7.25 -0.5,7.25 l 8.75,2 0.75,2.5 c 0,0 11.667,23.75 12.667,25 1,1.25 0.25,2.5 0.25,2.5"
             style="fill:#494949;fill-opacity:1;fill-rule:nonzero;stroke:none"
             id="path138" /></g><g
           id="g140"
           transform="translate(44.25,192.46)"><path
             d="m 0,0 c -8.63,-1.328 -17.25,7.25 -21,10.5 -3.75,3.25 -7,3.25 -9.75,1.5 -2.75,-1.75 -4.5,-8.75 -0.25,-11.75 4.25,-3 15.75,-10 19.5,-10.5 0.5,-3 1.25,-14.5 1.25,-14.5 0,0 -2.5,-0.5 -2.25,-2.5 0.25,-2 1.75,-2 1.75,-2 l 0.5,-16.25 c 0,0 -4.25,-2.25 -4,-7.25 0.25,-5 0.75,-34.25 0.75,-34.25 0,0 2.5,-3 4,-1.5 1.5,1.5 0,35.25 0,35.25 0,0 6,6 6.5,5.25 0.5,-0.75 0,-30.75 0,-30.75 0,0 1,-7 3,-6.75 2,0.25 1,8.75 1,8.75 l -1,32 c 0,0 -1.5,2.75 -3.5,2 -0.5,4.5 -0.5,13.5 -0.5,13.5 0,0 1.75,1.75 1.25,2.75 -0.5,1 -2.75,2.5 -2.75,2.5 l -1,13 c 0,0 11.25,1 14.25,3.25 3,2.25 2.75,3 1.75,5.5 C 8.5,0.25 6.5,1 0,0"
             style="fill:#494949;fill-opacity:1;fill-rule:nonzero;stroke:none"
             id="path142" /></g><g
           id="g144"
           transform="translate(46.5,106.96)"><path
             d="m 0,0 c 0,-4.557 -3.638,-8.25 -8.125,-8.25 -4.487,0 -8.125,3.693 -8.125,8.25 0,4.557 3.638,8.25 8.125,8.25 C -3.638,8.25 0,4.557 0,0"
             style="fill:#494949;fill-opacity:1;fill-rule:nonzero;stroke:none"
             id="path146" /></g><g
           id="g148"
           transform="translate(38.25,86.96)"><path
             d="m 0,0 c -11.598,0 -21,9.738 -21,21.75 0,12.012 9.402,21.75 21,21.75 11.598,0 20.899,-9.738 20.899,-21.75 C 20.899,9.738 11.598,0 0,0 m 0.75,50.25 c -14.912,0 -27,-12.592 -27,-28.125 0,-15.533 12.088,-28.125 27,-28.125 14.912,0 27,12.592 27,28.125 0,15.533 -12.088,28.125 -27,28.125"
             style="fill:#494949;fill-opacity:1;fill-rule:nonzero;stroke:none"
             id="path150" /></g><g
           id="g152"
           transform="translate(37.3335,107.127)"><path
             d="m 0,0 c 0,0 -6.333,-4.333 -9,-3.667 -2.667,0.666 -7,5.666 -8.333,5.333 -1.334,-0.333 -3,-1 -0.667,-2 2.333,-1 9.254,-6.333 10,-6.333 1,0 8.667,4 8.667,4 0,0 1.666,2.001 -0.667,2.667"
             style="fill:#494949;fill-opacity:1;fill-rule:nonzero;stroke:none"
             id="path154" /></g><g
           id="g156"
           transform="translate(19.3335,110.793)"><path
             d="M 0,0 0.667,-2 0,-4 l -8.333,-5.333 -5.334,1 c 0,0 -1.666,4 -0.666,4 1,0 9.666,4.333 9.666,4.333 L 0,0 z"
             style="fill:#494949;fill-opacity:1;fill-rule:nonzero;stroke:none"
             id="path158" /></g><g
           id="g160"
           transform="translate(39.667,110.127)"><path
             d="m 0,0 c 0,0 10.333,-0.333 13,1 0.667,1.666 0.333,3.666 0.333,3.666 L 18,7.333 25,6 l 0,-2.334 -4.667,-3 -3.666,-0.333 c 0,0 -3,-3.333 -10.334,-2.333 C 2.027,-1.413 0,-2.333 0,0"
             style="fill:#494949;fill-opacity:1;fill-rule:nonzero;stroke:none"
             id="path162" /></g><g
           id="g164"
           transform="translate(447.6035,265.5156)"><path
             d="m 0,0 c 0,0 -1.155,7.8 -5.502,10.261 -3.762,2.13 -7.849,2.02 -10.339,0.132 -4.321,-3.279 -5.631,-7.463 -5.909,-11.188 -0.382,-2.529 0.031,-2.848 0.78,-3.03 1.097,-0.266 2.303,-0.746 2.303,-0.746 0,0 0.03,-3.846 0.275,-5.139 0.173,-0.912 -0.025,-2.183 -0.732,-2.311 -0.707,-0.129 -1.458,-0.204 -1.458,-0.204 0,0 1.084,-1.325 1.705,-1.253 0.192,-0.518 0.01,-1.437 -2.176,-2.08 2.25,-0.836 3.169,0.058 3.169,0.058 0,0 0.001,-0.535 -0.957,-1.393 1.701,-1.745 6.02,-1.928 6.02,-1.928 0,0 1.049,0.394 0.192,0.048 -2.872,-1.157 -8.657,-2.597 -10.972,-5.941 -2.315,-3.344 -2.875,-7.477 -3.903,-8.763 -1.029,-1.286 -5.614,-8.984 -5.614,-8.984 0,0 -5.658,2.873 -9.774,4.673 -4.115,1.801 -5.916,3.344 -7.716,4.887 -1.8,1.544 -4.63,1.286 -5.915,1.801 -1.287,0.514 -3.173,2.4 -5.231,2.058 -2.058,-0.344 -1.329,-1.072 -0.814,-1.244 0.514,-0.172 1.843,-0.644 1.329,-0.986 -0.515,-0.343 -2.058,-1.372 -3.087,-1.715 -1.028,-0.343 -2.228,-0.685 -2.4,0 -0.172,0.686 -0.214,2.487 -0.214,2.487 0,0 -0.644,1.286 -0.987,0.6 -0.343,-0.686 -0.514,-2.401 -0.514,-2.401 0,0 -0.514,-0.857 -0.857,-0.343 -0.343,0.515 -0.343,1.544 -1.029,1.029 -0.686,-0.514 -1.372,0.172 -1.372,-0.514 0,-0.686 -0.001,-3.601 0.686,-4.116 0.686,-0.514 2.057,-1.2 2.572,-1.371 0.514,-0.172 4.801,0.171 5.83,-0.172 1.029,-0.343 4.973,1.029 7.03,1.029 2.058,0 4.63,-2.229 5.659,-2.915 1.028,-0.686 7.802,-7.589 11.403,-9.132 3.601,-1.543 3.772,-2.572 5.83,-2.229 2.058,0.343 8.231,7.03 9.946,9.431 0.897,0.925 1.029,-0.343 1.029,-0.343 0,0 0.943,-6.043 1.199,-8.101 0.258,-2.057 0,-6.386 -3.6,-9.259 -2.275,-1.816 -5.487,-7.332 -4.973,-9.218 -3.086,0.514 -6.001,-1.029 -6.001,-3.601 0,-2.572 4.8,-5.831 6.687,-6.002 2.229,-3.258 12.173,-16.804 18.518,-22.977 0.172,-0.343 0.001,-0.686 -0.684,-1.029 -0.687,-0.343 -7.717,-6.344 -10.289,-10.974 -3.601,-2.744 -4.115,-3.429 -4.458,-3.944 -0.344,-0.514 0,-0.857 0,-1.2 0,-0.343 -5.488,-6.002 -6.688,-6.516 -1.714,-0.343 -4.973,-0.342 -5.487,-2.572 -0.515,-2.229 1.029,-5.143 2.401,-6.515 1.372,-1.374 3.258,-7.717 6.001,-9.26 2.744,-1.543 3.772,-1.886 4.458,-1.543 0.687,0.343 1.029,1.028 1.029,1.028 0,0 -0.342,2.915 -0.514,4.458 -0.172,1.543 -1.372,2.744 -1.886,4.115 -0.515,1.372 -1.373,4.973 -1.201,5.66 0.172,0.685 -0.514,1.2 -0.514,1.2 0,0 3.43,1.714 4.801,2.571 1.372,0.858 3.087,1.715 3.602,1.544 0.513,-0.172 2.401,0.172 2.743,0.686 0.342,0.514 6.687,6.516 8.573,8.059 1.887,1.543 6.002,4.887 7.545,6.773 1.543,1.886 3.344,3.001 3.858,4.373 0.514,1.372 -0.942,7.888 -1.629,9.602 -0.686,1.715 -1.371,4.287 -1.371,4.287 0,0 7.2,-4.801 8.402,-5.316 1.2,-0.514 -1.03,-3.428 -1.886,-5.658 -0.858,-2.229 -1.887,-6.173 -2.401,-7.545 -0.514,-1.372 -1.714,-3.258 -1.714,-3.772 0,-0.515 -1.716,-2.744 -1.716,-2.744 l 0.172,-1.2 c 0,0 -3.085,-6.516 -3.429,-6.859 -0.344,-0.343 -2.915,-2.058 -3.087,-2.916 -0.172,-0.856 0,-3.428 0.857,-4.458 0.857,-1.028 3.258,-2.401 4.63,-3.944 1.371,-1.543 3.6,-3.772 6.001,-4.63 2.402,-0.856 3.43,-0.855 3.773,-0.171 0.343,0.686 0.857,3.429 -1.2,6.344 -2.058,2.916 -3.601,3.26 -4.287,4.459 -0.686,1.2 -0.685,1.887 -0.514,2.4 0.171,0.515 2.056,5.831 2.743,5.831 0.686,0 2.915,0.857 2.915,0.857 0,0 8.574,14.232 9.774,16.805 1.2,2.572 3.086,5.486 2.401,9.088 -0.687,3.6 -10.289,17.877 -20.235,26.964 -1.028,3.43 -1.2,6.86 -0.514,8.231 0.686,1.372 3.984,9.37 4.156,10.57 0.171,1.2 3.218,-12.113 6.647,-13.656 3.086,-0.858 10.412,5.273 15.3,9.112 3.325,1.536 6.23,3.304 6.517,4.115 0.288,0.811 -0.232,2.062 -0.429,2.829 -0.195,0.769 -0.15,2.42 -0.932,2.804 -0.782,0.384 -1.562,2.304 -2.541,1.92 -0.979,-0.385 -2.345,-0.035 -2.934,-0.575 -0.782,-0.72 -1.565,-1.153 -1.565,-1.153 0,0 -0.977,2.161 -2.15,1.585 -1.174,-0.576 -0.782,-1.393 -0.391,-2.544 0.391,-1.152 0.782,-1.536 0.977,-2.304 0.196,-0.768 -0.09,-1.755 0.196,-2.495 0.615,-1.586 -2.774,-2.727 -2.921,-2.811 -2.345,-1.343 -3.771,-0.857 -6,-0.857 -1.029,7.203 -3.622,13.482 -3.984,16.565 -0.43,3.645 -0.988,9.327 -3.903,11.042 -2.916,1.715 -6.394,3.392 -7.546,4.073 -2.361,1.396 -2.508,2.958 -2.508,2.958 0,0 3.14,0.492 5.323,3.092 -0.465,0.389 -1.954,1.646 -1.116,1.469 1.194,-0.253 2.416,1.419 2.416,1.419 0,0 -1.601,-0.419 -2.575,0.873 -0.626,0.763 -0.111,0.493 0.595,1.085 0.8,0.672 1.209,1.772 1.209,1.772 0,0 -0.455,-0.308 -1.247,-0.119 -0.79,0.189 -1.386,1.106 -2.224,2.581 -0.84,1.477 -1.133,2.63 -1.021,3.329 C -0.886,-1.214 -0.111,-0.698 0,0"
             style="fill:#000000;fill-opacity:1;fill-rule:nonzero;stroke:none"
             id="path166" /></g><g
           id="g168"
           transform="translate(425.375,179.5)"><path
             d="m 0,0 c 0.343,-0.686 1.028,-7.03 1.028,-7.03 0,0 -1.331,-0.275 -1.331,-1.475 0,-1.085 1.502,-1.269 1.502,-1.269 l 0.515,-5.658 c 0,0 -2.571,-0.858 -2.228,-2.058 0.342,-1.2 4.286,-28.121 4.457,-28.979 0.171,-0.856 0.515,-2.4 1.543,-1.885 1.03,0.514 1.544,2.916 1.544,3.6 0,0.686 -4.63,26.921 -4.63,26.921 0,0 1.372,1.029 2.058,1.029 0.686,0 4.457,-27.779 4.801,-28.294 0.344,-0.513 2.401,-0.684 2.401,-0.17 0,0.514 -4.802,29.836 -4.802,29.836 0,0 -1.246,0.925 -2.445,0.732 -0.343,3.429 -0.642,5.441 -0.642,5.441 0,0 0.813,0.325 0.813,0.84 0,0.514 -0.171,1.2 -0.984,1.389 -0.171,0.857 -0.685,4.115 -0.685,4.115 L 0,0 z"
             style="fill:#000000;fill-opacity:1;fill-rule:nonzero;stroke:none"
             id="path170" /></g><g
           id="g172"
           transform="translate(440.3857,130.9004)"><path
             d="m 0,0 c 1.129,-4.01 -0.72,-8.04 -4.132,-9.002 -3.412,-0.962 -7.094,1.51 -8.224,5.521 -1.129,4.009 0.719,8.041 4.131,9.002 C -4.812,6.483 -1.131,4.011 0,0"
             style="fill:#000000;fill-opacity:1;fill-rule:nonzero;stroke:none"
             id="path174" /></g><g
           id="g176"
           transform="translate(443.1523,105.3994)"><path
             d="m 0,0 c -12.207,-5.061 -26.67,1.565 -32.306,14.799 -5.636,13.237 -0.311,28.071 11.895,33.13 C -8.205,52.992 5.604,46.167 11.241,32.93 16.879,19.695 12.205,5.062 0,0 M 16.854,35.36 C 10.235,51.111 -7.035,58.874 -21.722,52.701 -36.409,46.53 -42.95,28.759 -36.332,13.01 -29.714,-2.737 -12.444,-10.501 2.244,-4.329 16.931,1.842 23.473,19.612 16.854,35.36"
             style="fill:#000000;fill-opacity:1;fill-rule:nonzero;stroke:none"
             id="path178" /></g><g
           id="g180"
           transform="translate(432.4053,129.2588)"><path
             d="m 0,0 -4.802,-0.343 c 0,0 -3.943,1.714 -4.286,2.401 -0.344,0.686 -2.23,1.028 -2.23,1.028 l -0.857,1.544 c 0,0 -8.403,0.172 -9.088,-0.343 -0.686,-0.515 -1.2,-1.715 -1.2,-1.715 0,0 3.257,-8.232 4.458,-8.402 1.543,0.514 9.088,2.915 9.088,2.915 l 0.686,0.686 -2.572,3.429 c 0,0 1.715,-1.201 2.915,-1.887 1.201,-0.685 2.743,-1.028 4.801,-1.028 2.058,0 4.802,0 3.087,1.715"
             style="fill:#000000;fill-opacity:1;fill-rule:nonzero;stroke:none"
             id="path182" /></g><g
           id="g184"
           transform="translate(437.8916,129.9453)"><path
             d="m 0,0 c 0,0 3.773,0.514 4.63,0.342 0.857,-0.172 4.115,-2.914 4.115,-2.914 0.503,-0.072 0.869,-0.403 0.901,0 0.042,0.561 -0.386,1.928 -0.386,1.928 0,0 0.9,0.344 1.415,0.515 0.513,0.171 7.587,2.187 7.587,2.187 0,0 4.03,-3.088 4.545,-3.431 0.514,-0.343 0.171,-2.229 0.171,-2.229 0,0 -8.403,-2.743 -8.232,-3.085 0.172,-0.344 -2.914,2.399 -2.914,2.399 0,0 -0.516,-1.371 -3.259,0.172 -2.742,1.544 -3.943,2.743 -3.943,2.743 -1.715,0.344 -3.943,-0.343 -3.943,-0.343 0,0 -2.23,0.687 -0.687,1.716"
             style="fill:#000000;fill-opacity:1;fill-rule:nonzero;stroke:none"
             id="path186" /></g><g
           id="g188"
           transform="translate(123.667,85.126)"><path
             d="M 0,0 10.38,5.667 12,10.334 C 12,10.334 8.333,13.333 6,13 3.667,12.667 -4.333,3.334 -4.333,3.334 -4.333,3.334 -1.333,0 0,0"
             style="fill:#494949;fill-opacity:1;fill-rule:nonzero;stroke:none"
             id="path190" /></g><g
           id="g192"
           transform="translate(134,105.71)"><path
             d="m 0,0 c 0,0 -0.667,-1.916 0.333,-2.25 1,-0.334 4,-1.417 6,-1.417 2,0 8.334,7 8.334,7 l -3,5.333 L 0,0 z"
             style="fill:#494949;fill-opacity:1;fill-rule:nonzero;stroke:none"
             id="path194" /></g><g
           id="g196"
           transform="translate(142.6665,125.1572)"><path
             d="m 0,0 c 0,0 0.559,-3.477 1.677,-5.856 2.049,-2.379 8.01,-4.757 9.501,-5.491 1.49,-0.731 7.556,0.588 5.961,3.295 C 15.09,-4.574 6.707,3.387 6.707,3.387 6.707,3.387 0.373,0.732 0,0"
             style="fill:#494949;fill-opacity:1;fill-rule:nonzero;stroke:none"
             id="path198" /></g></g></g></g></svg>